<svg width="28" height="28" viewBox="0 0 28 28" fill="none" xmlns="http://www.w3.org/2000/svg">
<g clip-path="url(#clip0_201_143)">
<path d="M22.1667 12.8334H8.33002L12.565 7.7467C12.763 7.50845 12.8583 7.20129 12.8299 6.89279C12.8014 6.5843 12.6516 6.29973 12.4134 6.1017C12.1751 5.90368 11.8679 5.8084 11.5594 5.83685C11.2509 5.86529 10.9664 6.01512 10.7684 6.25337L4.93502 13.2534C4.89577 13.309 4.86068 13.3675 4.83002 13.4284C4.83002 13.4867 4.83002 13.5217 4.74835 13.58C4.69547 13.7138 4.66778 13.8562 4.66669 14C4.66778 14.1439 4.69547 14.2863 4.74835 14.42C4.74835 14.4784 4.74835 14.5134 4.83002 14.5717C4.86068 14.6325 4.89577 14.691 4.93502 14.7467L10.7684 21.7467C10.878 21.8784 11.0154 21.9843 11.1707 22.0569C11.3259 22.1295 11.4953 22.167 11.6667 22.1667C11.9393 22.1672 12.2035 22.0723 12.4134 21.8984C12.5315 21.8004 12.6291 21.6801 12.7007 21.5444C12.7723 21.4087 12.8164 21.2601 12.8305 21.1073C12.8446 20.9545 12.8284 20.8004 12.7828 20.6539C12.7373 20.5074 12.6633 20.3713 12.565 20.2534L8.33002 15.1667H22.1667C22.4761 15.1667 22.7729 15.0438 22.9916 14.825C23.2104 14.6062 23.3334 14.3095 23.3334 14C23.3334 13.6906 23.2104 13.3939 22.9916 13.1751C22.7729 12.9563 22.4761 12.8334 22.1667 12.8334Z" fill="white"/>
</g>
<defs>
<clipPath id="clip0_201_143">
<rect width="28" height="28" fill="white"/>
</clipPath>
</defs>
</svg>
