<svg  viewBox="0 0 24 24" fill="none" xmlns="http://www.w3.org/2000/svg">
<path fill-rule="evenodd" clip-rule="evenodd" d="M2.03075 3.40662C2.15467 2.73616 2.71087 2.16611 3.36676 2.03732C3.60928 1.98968 20.3467 1.9866 20.6031 2.03416C20.9182 2.0926 21.3208 2.30807 21.5274 2.52891C21.747 2.76378 21.922 3.12597 21.9714 3.44809C21.9948 3.60063 22.0046 6.9141 21.998 12.4596L21.9875 21.2298L21.8997 21.4081C21.7998 21.6109 21.569 21.8352 21.365 21.9279C21.2375 21.9858 20.4993 21.9908 11.9997 21.9908H2.77289L2.59459 21.903C2.39179 21.803 2.16746 21.5723 2.07481 21.3683C2.01697 21.241 2.01112 20.5189 2.00198 12.4228C1.99544 6.57943 2.0051 3.54534 2.03075 3.40662ZM2.7867 3.25176C2.93543 2.96848 3.12515 2.81271 3.43874 2.71645C3.49106 2.70035 7.36918 2.69012 12.0568 2.69362L20.5797 2.70005L20.7509 2.78996C20.9849 2.91282 21.0835 3.00958 21.2018 3.23273L21.3026 3.42298L21.3126 9.04468L21.3227 14.6664H14.6636H8.0046L8.00422 13.8959C8.00387 13.1659 7.99912 13.1153 7.91381 12.9321C7.86431 12.8257 7.75983 12.6766 7.68164 12.6007C7.63384 12.5543 7.59672 12.5162 7.5545 12.4849C7.35505 12.3375 7.04183 12.3439 4.95057 12.3537L2.67655 12.3644L2.68667 7.89371L2.69679 3.42298L2.7867 3.25176ZM11.6573 4.0364V3.68213V3.32785H11.9997H12.3422V3.68213V4.0364L12.5379 4.08655C12.6456 4.11417 12.8285 4.18658 12.9443 4.24753L13.155 4.35837L13.3954 4.12007L13.6358 3.88177L13.8832 4.12696L14.1306 4.37214L13.8886 4.62049L13.6465 4.86883L13.7366 5.02103C13.7862 5.10473 13.8625 5.28877 13.9062 5.43005L13.9857 5.68688H14.3244H14.6631V6.01029V6.33371H14.3244H13.9857L13.9062 6.59054C13.8625 6.73181 13.7862 6.91585 13.7366 6.99956L13.6465 7.15176L13.8886 7.4001L14.1306 7.64845L13.8832 7.89363L13.6358 8.13882L13.3959 7.90109L13.1561 7.66332L12.9298 7.77743C12.8054 7.84021 12.6223 7.91239 12.5229 7.93788L12.3422 7.98419V8.33846V8.69273H11.9997H11.6573V8.33846V7.98419L11.4615 7.93404C11.3539 7.90642 11.171 7.83401 11.0551 7.77306L10.8445 7.66222L10.6041 7.90052L10.3636 8.13882L10.1162 7.89363L9.86883 7.64845L10.1109 7.4001L10.3529 7.15176L10.2628 6.99956C10.2133 6.91585 10.137 6.73181 10.0932 6.59054L10.0138 6.33371H9.67505H9.3363V6.01029V5.68688H9.67505H10.0138L10.0932 5.43005C10.137 5.28881 10.2133 5.10473 10.2628 5.02103L10.3529 4.86883L10.1109 4.62049L9.86883 4.37214L10.1162 4.12696L10.3636 3.88177L10.6041 4.12007L10.8445 4.35837L11.0551 4.24753C11.171 4.18658 11.3539 4.11417 11.4615 4.08655L11.6573 4.0364ZM10.7947 5.47761C10.9589 5.12265 11.2417 4.8651 11.5935 4.75016C11.854 4.66508 12.327 4.70069 12.58 4.82447C12.838 4.95075 13.0771 5.20316 13.2101 5.48998C13.3527 5.79749 13.3527 6.2231 13.2101 6.53061C13.0765 6.81856 12.838 7.0698 12.5759 7.19856C12.387 7.29128 12.3177 7.30395 11.9997 7.30395C11.6818 7.30395 11.6124 7.29128 11.4236 7.19856C11.1615 7.0698 10.9229 6.81856 10.7893 6.53061C10.6443 6.21796 10.6465 5.79825 10.7947 5.47761ZM11.6573 6.33371V6.01029V5.68688H11.9997H12.3422V6.01029V6.33371H11.9997H11.6573ZM15.6334 8.35904L15.6443 8.01223L15.6553 7.66542H15.9948H16.3344L16.3453 8.01223L16.3563 8.35904L16.5716 8.42559C16.69 8.46216 16.8687 8.53784 16.9688 8.59373L17.1506 8.69536L17.3912 8.45698L17.6317 8.21861L17.8684 8.45531L18.1051 8.69201L17.8679 8.93126L17.6308 9.17055L17.7607 9.41676C17.8321 9.55218 17.9099 9.73572 17.9335 9.82468L17.9763 9.98639H18.3173H18.6583V10.3288V10.6713H18.3195H17.9808L17.9018 10.9281C17.8583 11.0694 17.7805 11.2534 17.7289 11.3371L17.635 11.4893L17.8804 11.7377L18.1257 11.986L17.8868 12.2228L17.6478 12.4596L17.4074 12.217L17.1669 11.9744L16.92 12.1031C16.7842 12.1739 16.5975 12.2509 16.5052 12.2741L16.3373 12.3164V12.6543V12.9922H15.9948H15.6524V12.6543V12.3164L15.4845 12.2741C15.3921 12.2509 15.2055 12.1739 15.0697 12.1031L14.8227 11.9744L14.5823 12.217L14.3418 12.4596L14.1029 12.2228L13.864 11.986L14.1093 11.7377L14.3546 11.4893L14.2608 11.3371C14.2092 11.2534 14.1314 11.0694 14.0879 10.9281L14.0089 10.6713H13.6702H13.3314V10.3288V9.98639H13.6724H14.0134L14.0562 9.82468C14.0798 9.73572 14.1575 9.55218 14.229 9.41676L14.3589 9.17055L14.1217 8.93126L13.8846 8.69201L14.1213 8.45531L14.358 8.21861L14.5985 8.45698L14.8391 8.69536L15.0209 8.59373C15.1209 8.53784 15.2997 8.46216 15.4181 8.42559L15.6334 8.35904ZM9.98313 9.03726C9.98313 8.85474 9.99455 8.69399 10.0085 8.68006C10.0224 8.6661 10.1765 8.65468 10.351 8.65468H10.668V9.01192V9.36912L10.8107 9.39496C10.8892 9.40915 11.0787 9.48217 11.2319 9.5572L11.5103 9.69364L11.7466 9.45949L11.9828 9.22534L12.2196 9.46425L12.4564 9.70316L12.2116 9.94572L11.9668 10.1883L12.0575 10.3218C12.1074 10.3951 12.1872 10.5809 12.2349 10.7344L12.3216 11.0137H12.6553H12.989V11.3371V11.6605H12.6553H12.3216L12.2349 11.9398C12.1872 12.0934 12.1074 12.2791 12.0575 12.3525L11.9668 12.4859L12.2116 12.7285L12.4564 12.9711L12.2196 13.21L11.9828 13.4489L11.7466 13.2148L11.5103 12.9806L11.2319 13.117C11.0787 13.1921 10.8892 13.2651 10.8107 13.2793L10.668 13.3051V13.6638V14.0225L10.3351 14.0115L10.0022 14.0005L9.99127 13.6526L9.98039 13.3046L9.85654 13.2813C9.78844 13.2686 9.60622 13.1975 9.45167 13.1234L9.17064 12.9888L8.92971 13.2276L8.68875 13.4664L8.45205 13.2297L8.21535 12.993L8.45513 12.751L8.69492 12.5091L8.57586 12.282C8.51042 12.1571 8.43535 11.9705 8.40905 11.8673L8.36127 11.6796L8.01171 11.6686L7.66216 11.6577V11.3371V11.0166L8.01171 11.0056L8.36127 10.9947L8.40905 10.807C8.43535 10.7038 8.51042 10.5171 8.57586 10.3922L8.69492 10.1651L8.45513 9.92323L8.21535 9.68128L8.45205 9.44458L8.68875 9.20787L8.92971 9.44667L9.17064 9.68546L9.45167 9.55081C9.60622 9.47673 9.78905 9.40554 9.85791 9.39264L9.98313 9.36912V9.03726ZM15.0148 9.46988C15.2354 9.22854 15.4855 9.08726 15.7751 9.04038C15.8855 9.02254 16.0101 9.01306 16.0519 9.01934C16.3582 9.06538 16.4488 9.08989 16.605 9.16906C16.8491 9.29272 17.1514 9.63337 17.2372 9.8813C17.2807 10.0071 17.3063 10.1887 17.306 10.3697C17.3056 10.617 17.2882 10.6931 17.1825 10.9077C17.0392 11.1989 16.8321 11.4005 16.5321 11.5413C16.3536 11.6249 16.2648 11.6415 15.9948 11.6415C15.7249 11.6415 15.6361 11.6249 15.4576 11.5413C15.1575 11.4005 14.9505 11.1989 14.8071 10.9077C14.7015 10.6931 14.6841 10.617 14.6837 10.3697C14.6831 9.97832 14.7728 9.7347 15.0148 9.46988ZM15.6524 10.6713V10.3288V9.98639H15.9948H16.3373V10.3288V10.6713H15.9948H15.6524ZM9.38725 12.2443C8.71877 11.5645 8.99813 10.406 9.90723 10.0879C10.1587 9.9999 10.5448 10.0079 10.8083 10.1065C11.0869 10.2107 11.3932 10.4957 11.5334 10.7813C11.6243 10.9662 11.6383 11.0404 11.6383 11.3371C11.6383 11.635 11.6244 11.7078 11.5319 11.8961C11.3936 12.1778 11.0787 12.4664 10.7916 12.5747C10.6137 12.6418 10.5161 12.6541 10.2685 12.6406C9.88561 12.6197 9.65405 12.5156 9.38725 12.2443ZM9.98313 11.6605V11.3371V11.0137H10.3256H10.668V11.3371V11.6605H10.3256H9.98313ZM2.67777 13.4894C2.67777 13.2312 2.73142 13.1126 2.87722 13.0484C2.98067 13.0029 3.34195 12.9953 5.06228 13.0026L7.12339 13.0113L7.22155 13.1035C7.30701 13.1838 7.31972 13.2269 7.31972 13.4364V13.6771H4.99874H2.67777V13.4894ZM2.67777 19.9932V17.1586V14.3239H4.99874H7.31972V17.1586V19.9932H4.99874H2.67777ZM8.0046 16.9874V16.1693V15.3513H10.1965C12.1795 15.3513 12.3861 15.357 12.3653 15.4115C12.3525 15.4446 12.3422 15.8127 12.3422 16.2295V16.9874H10.1734H8.0046ZM13.008 15.5476L13.1002 15.4494C13.1806 15.364 13.2237 15.3513 13.4332 15.3513H13.6739V18.3381V21.3249H13.4861C13.3828 21.3249 13.2536 21.3079 13.1989 21.2871C13.1714 21.2766 13.1474 21.2679 13.1265 21.2544C12.985 21.1625 12.9875 20.8489 12.9975 18.2639L13.008 15.5476ZM14.3207 21.3249V18.3381V15.3513H17.1553H19.99V18.3381V21.3249H17.1553H14.3207ZM20.6748 21.3341V18.3427V15.3513H20.8959C21.1358 15.3513 21.2632 15.426 21.3034 15.5901C21.3148 15.6366 21.3193 16.9027 21.3134 18.4037L21.3026 21.1326L21.2185 21.2167C21.1557 21.2795 21.0762 21.305 20.9046 21.3175L20.6748 21.3341ZM8.06391 19.9865C8.01122 19.9974 8.0046 19.8691 8.0046 18.8355V17.6722H8.57339H9.14218L9.08986 17.7959C8.68575 18.7512 8.11186 19.9766 8.06391 19.9865ZM8.89593 19.9266C8.90928 19.89 9.13799 19.3679 9.40414 18.7663L9.88801 17.6727L11.1151 17.6724L12.3422 17.6722V18.8327V19.9932H10.6069C8.97031 19.9932 8.87295 19.9894 8.89593 19.9266ZM2.78598 21.2218C2.72316 21.159 2.69767 21.0794 2.68523 20.9079L2.66864 20.6781H4.99418H7.31972V20.9064C7.31972 21.1531 7.25397 21.2641 7.08286 21.3063C7.03527 21.318 6.06791 21.3227 4.93319 21.3167L2.87007 21.3059L2.78598 21.2218ZM7.98063 21.2393C7.99322 21.1922 8.0038 21.0467 8.00406 20.9159L8.0046 20.6781H10.1734H12.3422V20.9413C12.3422 21.0861 12.3525 21.2316 12.3653 21.2647C12.3861 21.3192 12.1775 21.3249 10.173 21.3249H7.95768L7.98063 21.2393Z" fill="currentColor"/>
</svg>
