<svg width="24" height="24" viewBox="0 0 24 24" fill="none" xmlns="http://www.w3.org/2000/svg">
<path fill-rule="evenodd" clip-rule="evenodd" d="M1.00371 2.18824C0.98965 1.2951 1.00797 1.18841 1.19595 1.06964C1.29527 1.00688 1.4166 0.999182 2.1605 1.00851L3.01139 1.01918L3.1123 1.13658C3.21191 1.25251 3.21317 1.26476 3.21317 2.12448V2.99502L3.10289 3.10535L2.99256 3.21563H2.12201C1.26234 3.21563 1.25004 3.21438 1.13411 3.11476L1.01672 3.01385L1.00371 2.18824ZM11.0053 1.13641C11.0571 1.0893 11.1277 1.03989 11.1622 1.02659C11.1967 1.01328 11.5953 1.00617 12.048 1.01077C12.856 1.01901 12.873 1.02102 12.9789 1.12059L13.0867 1.22205V2.11615C13.0867 2.71498 13.1103 2.9897 12.9847 3.11479C12.8599 3.23913 12.5878 3.21563 11.999 3.21563C11.4101 3.21563 11.138 3.23913 11.0132 3.11479C10.8877 2.9897 10.9112 2.71498 10.9112 2.11615C10.9112 1.24217 10.9133 1.22008 11.0053 1.13641ZM20.7848 2.13146C20.7848 1.20586 20.8017 1.12335 21.0089 1.03976C21.0582 1.01985 21.4525 1.00236 21.8851 1.0009C22.4563 0.998985 22.7387 0.989261 22.8758 1.12558C23.0176 1.26664 23.0041 1.56404 22.9942 2.18824L22.9812 3.01385L22.8638 3.11476C22.7479 3.21438 22.7356 3.21563 21.8759 3.21563H21.0054L20.8951 3.10535L20.7848 2.99502V2.13146ZM1.74887 2.46256V2.10695V1.75133H2.10448H2.4601V2.10695V2.46256H2.10448H1.74887ZM4.30093 2.50683V2.12908V1.75133H4.86737H5.4338L5.42171 2.11741L5.40962 2.48348L4.85528 2.49515L4.30093 2.50683ZM6.5183 2.5044V2.12786V1.75133H7.06219H7.60607V2.12786V2.5044H7.06219H6.5183ZM8.69383 2.50683V2.12908V1.75133H9.26027H9.8267L9.81461 2.11741L9.80252 2.48348L9.24818 2.49515L8.69383 2.50683ZM11.6224 2.46256V2.10695V1.75133H11.999H12.3755V2.10695V2.46256H11.999H11.6224ZM14.1954 2.48348L14.1833 2.11741L14.1712 1.75133H14.7377H15.3041V2.12908V2.50683L14.7498 2.49515L14.1954 2.48348ZM16.3919 2.5044V2.12786V1.75133H16.9358H17.4796V2.12786V2.5044H16.9358H16.3919ZM18.5883 2.48348L18.5762 2.11741L18.5641 1.75133H19.1306H19.697V2.12908V2.50683L19.1427 2.49515L18.5883 2.48348ZM21.5378 2.46256V2.10695V1.75133H21.8935H22.2491V2.10695V2.46256H21.8935H21.5378ZM3.96942 4.16671C3.99418 4.11237 4.06476 4.03668 4.12631 3.99849C4.22943 3.93452 4.84327 3.929 11.9865 3.92799C17.9068 3.92711 19.7608 3.93866 19.8446 3.97686C19.8722 3.98941 19.8964 3.99402 19.9178 4.00454C20.085 4.08692 20.0735 4.53177 20.0735 11.9974C20.0735 17.9091 20.0617 19.7633 20.0235 19.8471C20.011 19.8746 20.0064 19.8989 19.9959 19.9202C19.9135 20.0874 19.4685 20.076 11.997 20.076C4.84519 20.076 4.24203 20.0706 4.13317 20.0063C4.06828 19.968 3.99477 19.8918 3.96979 19.837C3.90591 19.6968 3.90553 4.30687 3.96942 4.16671ZM1.74887 5.43626V4.86983V4.3034H2.12662H2.50436L2.49269 4.85774L2.48102 5.41208L2.11494 5.42417L1.74887 5.43626ZM21.5169 5.41208L21.5052 4.85774L21.4936 4.3034H21.8713H22.2491V4.86983V5.43626L21.883 5.42417L21.5169 5.41208ZM4.67747 6.85546V5.7677V4.67993H11.999H19.3205V5.7677V6.85546H11.999H4.67747ZM5.3887 5.7956C5.3887 5.60382 5.40125 5.43438 5.41661 5.41907C5.43192 5.40371 5.68608 5.39116 5.98141 5.39116H6.5183V5.7677V6.14423H5.9535H5.3887V5.7956ZM7.22953 6.14423V5.76648V5.38873L7.78388 5.40041L8.33822 5.41208L8.35031 5.77816L8.3624 6.14423H7.79597H7.22953ZM9.07037 6.14423V5.7677V5.39116H9.61425H10.1581V5.7677V6.14423H9.61425H9.07037ZM11.999 6.14423V5.76745V5.39066L15.2936 5.40137L18.5883 5.41208L18.6004 5.77816L18.6125 6.14423H15.3057H11.999ZM1.74887 7.60853V7.06465V6.52076H2.1254H2.50194V7.06465V7.60853H2.1254H1.74887ZM21.496 7.60853V7.06465V6.52076H21.8725H22.2491V7.06465V7.60853H21.8725H21.496ZM4.67747 19.3229V13.4657V7.60853H11.999H19.3205V13.4657V19.3229H11.999H4.67747ZM1.74887 9.82916V9.26273V8.6963H2.12662H2.50436L2.49269 9.25064L2.48102 9.80498L2.11494 9.81707L1.74887 9.82916ZM21.5169 9.80498L21.5052 9.25064L21.4936 8.6963H21.8713H22.2491V9.26273V9.82916L21.883 9.81707L21.5169 9.80498ZM9.84615 15.1759C9.82557 15.1553 11.5801 10.1793 11.645 10.0743C11.6664 10.0396 12.2322 10.2228 12.3068 10.2886C12.3323 10.3111 10.5753 15.3523 10.5187 15.4189C10.5079 15.4318 9.87247 15.2022 9.84615 15.1759ZM5.77904 13.0621C5.80159 12.9232 5.94162 12.7669 6.92475 11.7832C7.54076 11.1669 8.06314 10.6626 8.08561 10.6626C8.14037 10.6626 8.56832 11.0876 8.56832 11.142C8.56832 11.1656 8.14016 11.6134 7.61686 12.1371L6.6654 13.0892L7.63824 14.0627L8.61104 15.0362L8.34805 15.2968L8.08506 15.5575L6.91923 14.3889L5.75339 13.2203L5.77904 13.0621ZM15.4104 11.1657L15.6592 10.9142C15.7961 10.7758 15.9183 10.6626 15.9307 10.6626C15.943 10.6626 16.4572 11.1669 17.0732 11.7832C18.0563 12.7669 18.1963 12.9232 18.2189 13.0621L18.2445 13.2203L17.0787 14.3889L15.9129 15.5575L15.6499 15.2968L15.3869 15.0362L16.3597 14.0627L17.3325 13.0892L16.3715 12.1274L15.4104 11.1657ZM1.01672 12.0014C1.01672 11.1363 1.01751 11.1287 1.11813 11.0216L1.21959 10.9137H2.11369C2.71251 10.9137 2.98724 10.8901 3.11233 11.0157C3.23666 11.1405 3.21317 11.4126 3.21317 12.0014C3.21317 12.5903 3.23666 12.8624 3.11233 12.9872C2.98724 13.1127 2.71251 13.0892 2.11369 13.0892H1.21959L1.11813 12.9812C1.01751 12.8741 1.01672 12.8665 1.01672 12.0014ZM20.7848 12.0014C20.7848 11.1204 20.7849 11.1189 20.8875 11.0164C20.9901 10.9137 20.9907 10.9137 21.8843 10.9137H22.7784L22.8798 11.0216C22.9804 11.1287 22.9812 11.1363 22.9812 12.0014C22.9812 12.8665 22.9804 12.8741 22.8798 12.9812L22.7784 13.0892H21.8843C21.2854 13.0892 21.0107 13.1127 20.8856 12.9872C20.7613 12.8624 20.7848 12.5903 20.7848 12.0014ZM1.74887 12.378V12.0014V11.6249H2.10448H2.4601V12.0014V12.378H2.10448H1.74887ZM21.5378 12.378V12.0014V11.6249H21.8935H22.2491V12.0014V12.378H21.8935H21.5378ZM1.74887 15.3066V14.7401V14.1737L2.11494 14.1858L2.48102 14.1979L2.49269 14.7522L2.50436 15.3066H2.12662H1.74887ZM21.496 14.7697C21.496 14.4743 21.5086 14.2202 21.5239 14.2049C21.5392 14.1895 21.7087 14.177 21.9004 14.177H22.2491V14.7418V15.3066H21.8725H21.496V14.7697ZM11.999 15.3066V14.93V14.5535H12.3755H12.752V14.93V15.3066H12.3755H11.999ZM13.4633 15.3066V14.93V14.5535H13.8398H14.2163V14.93V15.3066H13.8398H13.4633ZM1.74887 17.4821V16.9382V16.3943H2.1254H2.50194V16.9382V17.4821H2.1254H1.74887ZM21.496 17.4821V16.9382V16.3943H21.8725H22.2491V16.9382V17.4821H21.8725H21.496ZM1.74887 19.6995V19.133V18.5666L2.11494 18.5787L2.48102 18.5908L2.49269 19.1451L2.50436 19.6995H2.12662H1.74887ZM21.496 19.1626C21.496 18.8672 21.5086 18.6131 21.5239 18.5978C21.5392 18.5824 21.7087 18.5699 21.9004 18.5699H22.2491V19.1347V19.6995H21.8725H21.496V19.1626ZM1.01672 20.989L1.13411 20.8881C1.25004 20.7885 1.26234 20.7872 2.12201 20.7872H2.99256L3.10289 20.8975L3.21317 21.0078V21.8784C3.21317 22.7381 3.21191 22.7504 3.1123 22.8663L3.01139 22.9837L2.18142 22.9973C1.46429 23.009 1.33334 23.0013 1.21846 22.94C1.00818 22.8279 0.989315 22.7291 1.00371 21.8146L1.01672 20.989ZM10.9112 21.8867C10.9112 20.9932 10.9113 20.9925 11.0139 20.8899C11.1164 20.7874 11.1179 20.7872 11.999 20.7872C12.5878 20.7872 12.8599 20.7637 12.9847 20.8881C13.1103 21.0132 13.0867 21.2879 13.0867 21.8867V22.7808L12.9788 22.8823C12.8717 22.9829 12.8641 22.9837 11.999 22.9837C11.1339 22.9837 11.1263 22.9829 11.0192 22.8823L10.9112 22.7808V21.8867ZM20.7848 21.0078L20.8951 20.8975L21.0054 20.7872H21.8759C22.7356 20.7872 22.7479 20.7885 22.8638 20.8881L22.9812 20.989L22.9942 21.8146C23.004 22.4362 23.0185 22.7363 22.8757 22.8787C22.7337 23.0203 22.4363 23.006 21.8244 22.9966L20.9866 22.9837L20.8856 22.8663C20.786 22.7504 20.7848 22.7381 20.7848 21.8784V21.0078ZM4.30093 22.2515V21.8738V21.496L4.85528 21.5077L5.40962 21.5194L5.42171 21.8855L5.4338 22.2515H4.86737H4.30093ZM6.5183 22.2515V21.875V21.4985H7.06219H7.60607V21.875V22.2515H7.06219H6.5183ZM8.69383 22.2515V21.8738V21.496L9.24818 21.5077L9.80252 21.5194L9.81461 21.8855L9.8267 22.2515H9.26027H8.69383ZM14.1745 21.9029C14.1745 21.7111 14.1871 21.5417 14.2024 21.5264C14.2177 21.511 14.4719 21.4985 14.7672 21.4985H15.3041V21.875V22.2515H14.7393H14.1745V21.9029ZM16.3919 22.2515V21.875V21.4985H16.9358H17.4796V21.875V22.2515H16.9358H16.3919ZM18.5674 21.9029C18.5674 21.7111 18.58 21.5417 18.5953 21.5264C18.6106 21.511 18.8648 21.4985 19.1601 21.4985H19.697V21.875V22.2515H19.1322H18.5674V21.9029ZM1.74887 22.2515V21.8959V21.5403H2.10448H2.4601V21.8959V22.2515H2.10448H1.74887ZM11.6224 22.2515V21.8959V21.5403H11.999H12.3755V21.8959V22.2515H11.999H11.6224ZM21.5378 22.2515V21.8959V21.5403H21.8935H22.2491V21.8959V22.2515H21.8935H21.5378Z" fill="black"/>
</svg>
