<svg width="24" height="24" viewBox="0 0 24 24" fill="none" xmlns="http://www.w3.org/2000/svg">
<path fill-rule="evenodd" clip-rule="evenodd" d="M2.53402 2.47496C2.7421 2.28034 3.10861 2.08949 3.37447 2.03729C3.61681 1.98969 20.3412 1.98661 20.5974 2.03413C20.9123 2.09253 21.3145 2.30783 21.521 2.5285C21.7262 2.74794 21.9044 3.10034 21.961 3.39872C21.9867 3.53429 21.9998 6.6551 21.9998 12.6486C21.9998 21.3759 22.0121 21.8698 21.8551 21.9313C21.8342 21.9395 21.8103 21.9401 21.7829 21.9513C21.7035 21.9841 19.4677 21.9926 12.9384 21.9852L4.20021 21.9752L4.10843 21.8686L4.01669 21.7619V19.711V17.6601H3.75854C3.24316 17.6601 2.86703 17.5063 2.51296 17.1511C2.25386 16.8911 2.10593 16.6152 2.04323 16.2749C1.98795 15.9748 1.98453 3.69584 2.03966 3.39853C2.09805 3.08361 2.31336 2.68141 2.53402 2.47496ZM3.17529 2.84444C3.2873 2.77748 3.42405 2.7157 3.47922 2.70711C3.53434 2.69852 7.40325 2.69327 12.0768 2.69548L20.5741 2.69951L20.7782 2.81257C20.9842 2.92667 21.0952 3.04491 21.2254 3.2888C21.2937 3.41678 21.2968 3.63763 21.3065 9.03921L21.3166 14.6565H12.0013H2.68602L2.68644 9.15326C2.68667 6.12644 2.6975 3.58551 2.71054 3.50673C2.75119 3.26067 2.94797 2.98028 3.17529 2.84444ZM4.01669 14.0132V8.84109V3.669H4.35902H4.70131L4.69169 8.8301L4.68203 13.9912L4.34936 14.0022L4.01669 14.0132ZM5.34737 4.35334V4.01117V3.669H6.0127H6.67804V4.01117V4.35334H6.0127H5.34737ZM7.32436 4.35334V4.01117V3.669H10.9932H14.6621V4.01117V4.35334H10.9932H7.32436ZM15.3084 4.35334V4.01117V3.669H15.9927H16.6771V4.01117V4.35334H15.9927H15.3084ZM5.34737 6.67251V6.33034V5.98817H6.0127H6.67804V6.33034V6.67251H6.0127H5.34737ZM7.32436 6.3557C7.32436 6.18142 7.33577 6.02744 7.34972 6.01353C7.36364 5.99957 9.83583 5.98817 12.8435 5.98817H18.3119V6.33034V6.67251H12.8181H7.32436V6.3557ZM18.9963 6.67251V6.33034V5.98817H19.6616H20.3269V6.33034V6.67251H19.6616H18.9963ZM6.0127 8.99168H5.34737V8.66852V8.34536H6.0127H6.67804V8.66852V8.99168H6.0127ZM12.8181 8.99168H7.32436V8.66852V8.34536H12.8181H18.3119V8.66852V8.99168H12.8181ZM19.6616 8.99168H18.9963V8.66852V8.34536H19.6616H20.3269V8.66852V8.99168H19.6616ZM6.0127 13.9912L6.00278 12.3279L5.99289 10.6645H6.33545H6.67804V12.3389V14.0132L6.34537 14.0022L6.0127 13.9912ZM7.34337 11.3299L7.33239 10.9972L7.3214 10.6645H8.00871H8.69602L8.68503 10.9972L8.67405 11.3299H8.00871H7.34337ZM9.33938 11.3493V11.0069V10.6645H13.0097H16.6801L16.6691 10.9972L16.6581 11.3299L12.9987 11.3396L9.33938 11.3493ZM17.3234 11.3489V11.0067V10.6645H17.9887H18.6541V11.0067V11.3489H17.9887H17.3234ZM7.32436 13.668V13.3259V12.9837H8.00871H8.69305V13.3259V13.668H8.00871H7.32436ZM9.33938 13.668V13.3259V12.9837H13.0082H16.6771V13.3259V13.668H13.0082H9.33938ZM17.3234 13.668V13.3259V12.9837H17.9887H18.6541V13.3259V13.668H17.9887H17.3234ZM3.2081 16.8498C2.8257 16.6257 2.68602 16.3219 2.68602 15.7142V15.3409H3.35136H4.01669V16.1631V16.9853L3.69954 16.9686C3.44298 16.9551 3.34908 16.9324 3.2081 16.8498ZM4.70104 21.3099V18.3254V15.3409H13.0082H21.3154V18.3254V21.3099H13.0082H4.70104ZM5.34737 16.6716V16.3294V15.9872H6.0127H6.67804V16.3294V16.6716H6.0127H5.34737ZM7.34337 16.6525L7.33239 16.3199L7.3214 15.9872H8.00871H8.69602L8.68503 16.3199L8.67405 16.6525H8.00871H7.34337ZM9.33938 16.6716V16.3294V15.9872H10.0047H10.6701V16.3294V16.6716H10.0047H9.33938ZM11.3354 16.6525L11.3244 16.3199L11.3134 15.9872H12.0007H12.688L12.677 16.3199L12.6661 16.6525H12.0007H11.3354ZM13.3314 16.6716V16.3294V15.9872H13.9967H14.6621V16.3294V16.6716H13.9967H13.3314ZM15.3274 16.6525L15.3164 16.3199L15.3054 15.9872H15.9927H16.6801L16.6691 16.3199L16.6581 16.6525H15.9927H15.3274ZM17.3234 16.6716V16.3294V15.9872H17.9887H18.6541V16.3294V16.6716H17.9887H17.3234ZM19.3194 16.6525L19.3084 16.3199L19.2974 15.9872H19.9848H20.6721L20.6611 16.3199L20.6501 16.6525H19.9848H19.3194ZM6.33586 18.0022V17.6601V17.3179H7.0012H7.66654V17.6601V18.0022H7.0012H6.33586ZM8.35088 18.0022V17.6601V17.3179H9.01622H9.68155V17.6601V18.0022H9.01622H8.35088ZM10.3279 18.0022V17.6601V17.3179H10.9932H11.6586V17.6601V18.0022H10.9932H10.3279ZM12.3429 18.0022V17.6601V17.3179H13.0082H13.6736V17.6601V18.0022H13.0082H12.3429ZM14.3199 18.0022V17.6601V17.3179H14.9852H15.6506V17.6601V18.0022H14.9852H14.3199ZM16.3349 18.0022V17.6601V17.3179H17.0002H17.6656V17.6601V18.0022H17.0002H16.3349ZM18.3119 18.0022V17.6601V17.3179H18.9772H19.6426V17.6601V18.0022H18.9772H18.3119ZM5.34737 19.3329V18.9907V18.6486H6.0127H6.67804V18.9907V19.3329H6.0127H5.34737ZM7.34337 19.3139L7.33239 18.9812L7.3214 18.6486H8.00871H8.69602L8.68503 18.9812L8.67405 19.3139H8.00871H7.34337ZM9.33938 19.3329V18.9907V18.6486H10.0047H10.6701V18.9907V19.3329H10.0047H9.33938ZM11.3354 19.3139L11.3244 18.9812L11.3134 18.6486H12.0007H12.688L12.677 18.9812L12.6661 19.3139H12.0007H11.3354ZM13.3314 19.3329V18.9907V18.6486H13.9967H14.6621V18.9907V19.3329H13.9967H13.3314ZM15.3274 19.3139L15.3164 18.9812L15.3054 18.6486H15.9927H16.6801L16.6691 18.9812L16.6581 19.3139H15.9927H15.3274ZM17.3234 19.3329V18.9907V18.6486H17.9887H18.6541V18.9907V19.3329H17.9887H17.3234ZM19.3194 19.3139L19.3084 18.9812L19.2974 18.6486H19.9848H20.6721L20.6611 18.9812L20.6501 19.3139H19.9848H19.3194ZM6.33586 20.6636V20.3214V19.9792H7.0012H7.66654V20.3214V20.6636H7.0012H6.33586ZM8.35088 20.6636V20.3214V19.9792H13.0082H17.6656V20.3214V20.6636H13.0082H8.35088ZM18.3119 20.6636V20.3214V19.9792H18.9772H19.6426V20.3214V20.6636H18.9772H18.3119Z" fill="black"/>
</svg>
