<svg width="24" height="24" viewBox="0 0 24 24" fill="none" xmlns="http://www.w3.org/2000/svg">
<g clip-path="url(#clip0_22_78)">
<path fill-rule="evenodd" clip-rule="evenodd" d="M11.5193 0.0478919C11.0394 0.169111 10.4829 0.59722 10.2507 1.02392C9.64579 2.13533 10.1542 3.46063 11.3532 3.89783L11.625 3.99692V4.7128V5.42867L11.3789 5.45924C10.8845 5.5206 10.3572 5.62953 9.99928 5.74428C9.43336 5.92569 8.55408 6.3837 8.06587 6.75144L7.62389 7.0843L7.11468 6.57505L6.60543 6.06584L6.75961 5.73992C6.90239 5.43824 6.91373 5.37927 6.91265 4.9453C6.91167 4.56603 6.89062 4.42428 6.80226 4.20261C6.66633 3.86155 6.37354 3.49724 6.05803 3.2766C5.17369 2.65822 3.88804 2.89934 3.28936 3.79588C3.0382 4.172 2.93742 4.49249 2.93531 4.92186C2.93222 5.55289 3.18886 6.09031 3.687 6.49616C4.0665 6.80535 4.38642 6.91124 4.94531 6.91264C5.37928 6.91372 5.43825 6.90238 5.73993 6.75959L6.06586 6.60542L6.57506 7.11467L7.08431 7.62388L6.75145 8.06586C6.38372 8.55406 5.9257 9.43334 5.74429 9.99927C5.62954 10.3572 5.52061 10.8845 5.45925 11.3789L5.42868 11.625H4.71281H3.99693L3.89784 11.3532C3.75754 10.9685 3.5399 10.661 3.24267 10.4278C2.21226 9.61902 0.745356 9.9838 0.173481 11.191C0.0343096 11.4848 0.0234346 11.5435 0.0234346 12C0.0234346 12.4565 0.0343096 12.5151 0.173481 12.809C0.961497 14.4725 3.26878 14.372 3.89784 12.6468L3.99693 12.375H4.71281H5.42868L5.45925 12.6211C5.52061 13.1155 5.62954 13.6428 5.74429 14.0007C5.9257 14.5666 6.38372 15.4459 6.75145 15.9341L7.08431 16.3761L6.5745 16.8859L6.06468 17.3957L5.82825 17.2769C4.74614 16.7334 3.39061 17.3022 3.02076 18.4549C2.69639 19.4659 3.24332 20.5704 4.26004 20.9575C4.6057 21.0891 5.16679 21.0982 5.54512 20.9782C6.696 20.6133 7.26656 19.2538 6.72304 18.1717L6.60426 17.9353L7.11408 17.4255L7.62389 16.9157L8.06587 17.2485C8.54845 17.612 9.42009 18.0655 9.99797 18.2537C10.3532 18.3695 10.8786 18.4786 11.3789 18.5407L11.625 18.5713V19.2872V20.003L11.3532 20.1021C10.9685 20.2424 10.6611 20.4601 10.4278 20.7573C9.61903 21.7877 9.98381 23.2546 11.191 23.8265C11.4848 23.9657 11.5435 23.9765 12 23.9765C12.4565 23.9765 12.5152 23.9657 12.809 23.8265C14.4743 23.0376 14.3739 20.7319 12.6468 20.1021L12.375 20.003V19.2872V18.5713L12.6211 18.5407C13.1214 18.4786 13.6468 18.3695 14.002 18.2537C14.5799 18.0655 15.4515 17.612 15.9341 17.2485L16.3761 16.9157L16.8901 17.4297L17.4041 17.9437L17.3054 18.1034C17.2511 18.1913 17.1742 18.3877 17.1345 18.5399C16.8863 19.4929 17.3311 20.4545 18.2105 20.866C18.992 21.2317 19.8159 21.0968 20.4408 20.5008C21.3746 19.6101 21.2321 18.0897 20.1492 17.3897C19.5717 17.0165 18.8557 16.9633 18.2463 17.2485L17.9341 17.3946L17.4249 16.8853L16.9157 16.3761L17.2485 15.9341C17.6121 15.4515 18.0655 14.5799 18.2537 14.002C18.3695 13.6468 18.4786 13.1214 18.5407 12.6211L18.5713 12.375H19.2872H20.0031L20.1022 12.6468C20.5313 13.8238 21.825 14.3408 22.9301 13.7771C23.2504 13.6136 23.6086 13.2386 23.7893 12.8772C23.8794 12.6972 23.9531 12.5012 23.9531 12.4418C23.9531 12.3823 23.9742 12.3206 24 12.3047C24.0258 12.2887 24.0469 12.128 24.0469 11.9476C24.0469 11.7408 24.0295 11.6301 24 11.6484C23.9737 11.6647 23.9531 11.6276 23.9531 11.5637C23.9531 11.5012 23.8794 11.3028 23.7893 11.1228C22.9867 9.51819 20.7196 9.65989 20.1022 11.3532L20.0031 11.625H19.2872H18.5713L18.5407 11.3789C18.4786 10.8786 18.3695 10.3532 18.2537 9.99795C18.0655 9.42008 17.6121 8.54844 17.2485 8.06586L16.9157 7.62388L17.4255 7.11406L17.9353 6.60425L18.1688 6.72158C18.6305 6.95347 19.154 6.9988 19.6364 6.84866C20.2003 6.67316 20.6228 6.30922 20.866 5.78952C21.2435 4.98299 21.0811 4.10989 20.44 3.49841C19.816 2.90314 18.9916 2.76838 18.2105 3.13395C17.1926 3.61025 16.7729 4.82478 17.2784 5.83114L17.3957 6.06467L16.8859 6.57449L16.3761 7.0843L15.9341 6.75144C15.4459 6.3837 14.5666 5.92569 14.0007 5.74428C13.6428 5.62953 13.1155 5.5206 12.6211 5.45924L12.375 5.42867V4.7128V3.99692L12.6468 3.89783C13.378 3.6312 13.8658 3.04447 13.9823 2.29142C14.1157 1.42963 13.6378 0.563142 12.8171 0.179142C12.5622 0.059845 12.4377 0.0319544 12.1019 0.0190638C11.8783 0.0104856 11.6161 0.02347 11.5193 0.0478919ZM11.5862 0.839283C10.8912 1.07933 10.554 1.91024 10.8878 2.5603C11.1128 2.99858 11.4989 3.23164 12.0025 3.23333C12.7073 3.23567 13.2341 2.70463 13.2357 1.98997C13.2369 1.46511 12.8714 0.972032 12.3709 0.823439C12.0544 0.729407 11.895 0.732642 11.5862 0.839283ZM4.46034 3.77488C3.60839 4.14486 3.42984 5.27689 4.12908 5.87544C4.70536 6.3687 5.60043 6.22841 5.98523 5.58449C6.49458 4.73211 5.91103 3.70095 4.92187 3.70541C4.75429 3.70616 4.54659 3.73742 4.46034 3.77488ZM18.5364 3.81439C17.8921 4.11444 17.6383 4.90138 17.9821 5.53311C18.356 6.21997 19.274 6.38633 19.8709 5.87544C20.5476 5.2962 20.388 4.16159 19.5782 3.79386C19.2931 3.66444 18.8393 3.67339 18.5364 3.81439ZM11.1094 6.26488C10.2228 6.40058 9.28336 6.79288 8.55637 7.33091C5.41818 9.6537 5.41818 14.3463 8.55637 16.6691C9.81225 17.5986 11.4839 17.9922 13.0078 17.7172C15.1425 17.3321 16.9324 15.7433 17.5476 13.6875C17.7375 13.0529 17.7834 12.725 17.7839 12C17.7844 11.2308 17.7052 10.7359 17.478 10.0887C16.5499 7.4443 13.8793 5.84085 11.1094 6.26488ZM11.0689 9.07527C10.0261 9.25006 8.99179 9.76639 8.22122 10.4968C7.93701 10.7661 7.90012 10.9157 8.06592 11.1265C8.23495 11.3414 8.43047 11.3 8.82693 10.9654C9.48951 10.4061 10.2408 10.0239 10.9759 9.87205C12.5199 9.55311 13.9579 9.93205 15.1957 10.984C15.5668 11.2993 15.7676 11.3381 15.9341 11.1265C16.0999 10.9157 16.063 10.7661 15.7788 10.4968C14.5441 9.32656 12.7679 8.79045 11.0689 9.07527ZM11.3358 10.5448C10.5292 10.6925 9.80531 11.0518 9.26953 11.5701C9.00408 11.8269 8.97136 12.0225 9.16195 12.213C9.35447 12.4056 9.51951 12.3632 9.89901 12.0238C10.1731 11.7786 10.6513 11.5259 11.1094 11.3842C11.6085 11.2298 12.3914 11.2298 12.8906 11.3842C13.3487 11.5259 13.8269 11.7786 14.101 12.0238C14.4805 12.3632 14.6455 12.4056 14.838 12.213C14.9157 12.1354 14.9531 12.0455 14.9531 11.9365C14.9531 11.8009 14.9125 11.7379 14.6997 11.5434C14.2178 11.103 13.7102 10.8225 13.0547 10.6346C12.6855 10.5287 11.7037 10.4774 11.3358 10.5448ZM1.68464 10.7969C1.16583 10.9402 0.749997 11.4755 0.749997 12C0.749997 12.4274 1.07484 12.9331 1.46864 13.1187C2.08031 13.4069 2.79014 13.1678 3.10345 12.568C3.5962 11.6248 2.70684 10.5147 1.68464 10.7969ZM21.7375 10.7836C21.1284 10.9332 20.7687 11.3848 20.7667 12.0025C20.7628 13.1441 22.1355 13.668 22.9149 12.8224C23.1031 12.6183 23.25 12.2577 23.25 12C23.25 11.932 23.217 11.7651 23.1765 11.6291C23.0016 11.0399 22.3214 10.6403 21.7375 10.7836ZM0.0157471 12C0.0157471 12.1933 0.0240439 12.2725 0.0341221 12.1758C0.0442471 12.0791 0.0442471 11.9209 0.0341221 11.8242C0.0240439 11.7275 0.0157471 11.8066 0.0157471 12ZM11.4034 12.0673C10.8307 12.2061 10.151 12.673 10.0965 12.965C10.0427 13.2531 10.4033 13.4894 10.646 13.3251C10.7134 13.2795 10.8822 13.1639 11.021 13.0683C11.2822 12.8884 11.7079 12.75 12 12.75C12.2921 12.75 12.7178 12.8884 12.979 13.0683C13.1178 13.1639 13.2866 13.2795 13.354 13.3251C13.5914 13.4859 13.8937 13.3042 13.8937 13.001C13.8937 12.8525 13.8607 12.7987 13.6617 12.6222C13.3907 12.3818 12.8784 12.1245 12.525 12.0514C12.2046 11.9851 11.7141 11.9921 11.4034 12.0673ZM11.5257 13.6309C11.1808 13.8111 11.0045 14.0692 10.9782 14.4323C10.9539 14.7685 11.0248 15.0006 11.2194 15.2223C11.6191 15.6776 12.3809 15.6776 12.7806 15.2223C12.9752 15.0006 13.0461 14.7685 13.0218 14.4323C13.0066 14.2226 12.9683 14.1081 12.8634 13.9588C12.6817 13.7004 12.3047 13.5 12 13.5C11.8462 13.5 11.698 13.5409 11.5257 13.6309ZM11.8125 14.3437C11.6955 14.4607 11.692 14.6331 11.8045 14.7349C11.9839 14.8973 12.2812 14.7752 12.2812 14.5393C12.2812 14.4117 12.124 14.25 12 14.25C11.9484 14.25 11.8641 14.2922 11.8125 14.3437ZM4.54542 17.8817C3.83808 18.1091 3.48656 18.9809 3.83404 19.6461C3.98034 19.9262 4.26914 20.1736 4.53633 20.2478C5.66006 20.5599 6.56925 19.4338 5.99929 18.4358C5.7179 17.9431 5.09404 17.7053 4.54542 17.8817ZM18.7905 17.8455C18.7224 17.856 18.5538 17.9321 18.4157 18.0146C17.7716 18.3995 17.6312 19.2945 18.1245 19.8709C18.6258 20.4565 19.5884 20.4394 20.0481 19.8366C20.4446 19.3168 20.3654 18.5478 19.8717 18.1252C19.5769 17.8729 19.2173 17.7799 18.7905 17.8455ZM11.4478 20.8865C10.8483 21.1852 10.5844 21.9231 10.8677 22.5083C11.0704 22.927 11.5634 23.25 12 23.25C12.4357 23.25 12.9296 22.9271 13.1315 22.5101C13.3458 22.0674 13.2163 21.4065 12.8526 21.0872C12.4572 20.74 11.9011 20.6605 11.4478 20.8865Z" fill="currentColor"/>
</g>
<defs>
<clipPath id="clip0_22_78">
<rect width="24" height="24" fill="white"/>
</clipPath>
</defs>
</svg>
