<svg width="70" height="70" viewBox="0 0 70 70" fill="none" xmlns="http://www.w3.org/2000/svg">
<path d="M54.1953 12.5226C45.2579 12.5226 38.2011 19.7688 38.2011 28.7062C38.2011 37.6435 45.5413 44.8897 54.4786 44.8897C54.568 44.8897 54.7029 44.8776 54.7923 44.8761C51.2586 47.69 46.8202 49.3857 41.9621 49.3857C39.727 49.3857 37.9283 51.198 37.9283 53.4316C37.9283 55.6651 39.3664 57.4774 41.6015 57.4774C57.4653 57.4759 70 44.57 70 28.7062C70 28.7031 70 28.7001 70 28.6955C70 19.7628 63.1296 12.5226 54.1953 12.5226Z" fill="white"/>
<path d="M16.2896 12.5226C7.35231 12.5226 0.283364 19.7688 0.283364 28.7062C0.283364 37.6435 7.61749 44.8897 16.5563 44.8897C16.6457 44.8897 16.7776 44.8776 16.867 44.8761C13.3333 47.69 8.89339 49.3857 4.03529 49.3857C1.80019 49.3857 0 51.198 0 53.4316C0 55.6651 1.46076 57.4774 3.69585 57.4774C19.5597 57.4759 32.1171 44.57 32.1171 28.7062C32.1171 28.7031 32.1171 28.7001 32.1171 28.6955C32.1171 19.7628 25.2239 12.5226 16.2896 12.5226Z" fill="white"/>
</svg>
