<svg width="16" height="16" viewBox="0 0 16 16" fill="none" xmlns="http://www.w3.org/2000/svg">
<path d="M7.9999 1C4.4853 1 1.63616 1.9971 1.63621 3.22707C1.63628 4.45702 4.48537 5.45407 7.9999 5.45408C9.20583 5.45408 10.3334 5.33669 11.2944 5.13279C11.4691 4.92812 11.664 4.72753 11.883 4.53547C11.8763 4.54058 11.9168 4.49961 11.9309 4.4559C11.9536 4.38552 11.9662 4.32239 11.9662 4.32239C11.9945 4.17434 12.075 4.04136 12.193 3.94758C12.311 3.8538 12.4587 3.80544 12.6094 3.81127C12.7255 3.81576 12.8382 3.85231 12.9349 3.91687C13.0316 3.98143 13.1085 4.07148 13.1572 4.17706C13.1572 4.17706 13.2229 4.31166 13.2985 4.46075C13.9712 4.10758 14.3636 3.68337 14.3637 3.22707C14.3611 3.18174 14.3547 3.13644 14.3442 3.09124C14.3342 3.03387 14.3178 2.97666 14.2952 2.91973C13.8574 1.82014 11.1723 1.00132 7.9999 1ZM11.9647 4.46485C11.9156 4.50634 11.8943 4.5257 11.8867 4.53225C11.9125 4.5097 11.9383 4.48716 11.9647 4.46485ZM1.63621 4.49315V6.41534C1.64693 7.64255 4.49249 8.63545 7.99922 8.63558C8.58543 8.63558 9.15246 8.60732 9.69151 8.55539C9.7502 8.13824 9.85551 7.7242 10.0202 7.32882C10.1995 6.89827 10.4251 6.39072 10.7501 5.87503C9.9066 6.01055 8.97854 6.08414 7.9999 6.08414C6.18304 6.08414 4.53791 5.83247 3.29201 5.39645C2.66905 5.17844 2.14359 4.91765 1.73472 4.57935C1.70114 4.55157 1.66846 4.5226 1.63621 4.49315ZM14.3637 4.49315C14.3314 4.5226 14.2987 4.55157 14.2652 4.57935C14.0772 4.7349 13.8642 4.87389 13.6288 5.00003C13.8251 5.23165 14.1013 5.48771 14.3637 5.83832V4.49315ZM12.5392 5.64781C11.8537 6.31682 11.4792 7.103 11.1833 7.81329C11.1116 7.98551 11.0561 8.17314 11.0143 8.37014C11.3372 8.30922 11.6425 8.2384 11.9288 8.15959L11.9408 7.67746C11.9451 7.51559 12.0116 7.3616 12.1264 7.24744C12.2412 7.13327 12.3956 7.06769 12.5575 7.0643C12.7194 7.06092 12.8763 7.11999 12.9958 7.22925C13.1153 7.33852 13.1882 7.4896 13.1992 7.65114L13.2019 7.69127C13.4267 7.57979 13.6229 7.46079 13.787 7.33552C13.684 7.11663 13.5702 6.90859 13.4411 6.71482C13.2473 6.42394 12.8787 6.11461 12.5392 5.64781ZM1.63621 7.67527V9.60306C1.64693 10.8303 4.49249 11.8232 7.99922 11.8233C8.70398 11.8233 9.38121 11.7827 10.0149 11.7087C10.0115 11.6988 10.0078 11.6891 10.0045 11.6793C9.76973 10.9789 9.60682 10.098 9.63662 9.19469C9.11194 9.24129 8.5639 9.26564 7.99922 9.26564C6.18235 9.26564 4.53723 9.01397 3.29132 8.57795C2.66837 8.35994 2.14291 8.09916 1.73403 7.76085C1.70069 7.73327 1.66824 7.7045 1.63621 7.67527ZM14.0346 7.93456C13.8015 8.09608 13.5381 8.23852 13.2469 8.36658L13.407 10.7705C14.0127 10.4296 14.363 10.0273 14.363 9.5963V9.93167C14.3632 9.92784 14.3635 9.924 14.3637 9.92018V9.47598C14.3399 9.00511 14.2473 8.54347 14.0896 8.08843C14.0717 8.03666 14.0532 7.98554 14.0346 7.93456ZM11.9126 8.81659C11.6007 8.89689 11.2712 8.96732 10.9266 9.02714C10.8748 9.82677 10.9979 10.6784 11.1991 11.2789C11.2227 11.3494 11.2558 11.424 11.2964 11.5015C11.4878 11.4608 11.6719 11.4165 11.8493 11.3692L11.9126 8.81659ZM1.63621 10.863V12.7667C1.63597 12.7683 1.63575 12.7699 1.63553 12.7715C1.6356 14.0015 4.48469 14.9985 7.99922 14.9985C9.46537 14.9985 10.8147 14.8245 11.8907 14.533C11.8899 14.5165 11.8895 14.5017 11.8885 14.4848C11.8814 14.3583 11.8632 14.2278 11.8485 14.1295C11.5438 13.8792 10.776 13.208 10.2846 12.312C9.56922 12.4042 8.80103 12.4534 7.99922 12.4534C6.18235 12.4534 4.53723 12.2017 3.29132 11.7657C2.66837 11.5477 2.14291 11.2869 1.73403 10.9486C1.70069 10.921 1.66824 10.8922 1.63621 10.863ZM14.1977 11.002C13.9796 11.173 13.7304 11.3237 13.4529 11.4589L13.5107 12.3273C13.6676 12.1225 13.816 11.9114 13.9038 11.7299C14.0329 11.4628 14.139 11.2241 14.1977 11.002ZM11.8331 12.0242C11.7796 12.0376 11.7264 12.051 11.6719 12.0637C11.7224 12.1285 11.7741 12.1932 11.8273 12.257L11.8331 12.0242Z" fill="url(#paint0_linear_97_572)"/>
<path d="M12.585 4.44067C12.585 4.44067 12.5109 4.82818 12.3711 4.94621C11.4102 5.75744 10.9396 6.75996 10.6018 7.57103C10.0888 8.80275 10.2472 10.4209 10.6018 11.4791C10.9669 12.5684 12.3683 13.7417 12.4197 13.7845L12.5706 7.69302L12.9758 13.7745L12.4236 13.7895C12.5308 14.0818 12.531 14.89 12.531 14.89L12.8197 15C12.8257 14.4715 12.826 14.0173 12.9841 13.7627L13.0322 13.715C13.0322 13.715 13.5988 13.2286 13.8682 12.8984C14.0875 12.6295 14.32 12.3164 14.471 12.004C14.611 11.7143 14.7457 11.4225 14.8209 11.1096C14.9479 10.5812 15.018 10.039 14.9959 9.49589C14.9734 8.94451 14.8664 8.40571 14.6849 7.88209C14.5007 7.35075 14.2773 6.83352 13.9655 6.36553C13.6797 5.93669 13.2607 5.60759 12.9739 5.17952C12.8189 4.94832 12.585 4.44067 12.585 4.44067Z" fill="#99B000"/>
<defs>
<linearGradient id="paint0_linear_97_572" x1="2.27254" y1="15" x2="14.3636" y2="1.00003" gradientUnits="userSpaceOnUse">
<stop stop-color="#4E505D"/>
<stop offset="1" stop-color="#7A859C"/>
</linearGradient>
</defs>
</svg>
