<?xml version="1.0" encoding="utf-8"?>
<!-- Generator: Adobe Illustrator 26.0.3, SVG Export Plug-In . SVG Version: 6.00 Build 0)  -->
<svg version="1.0" id="katman_1" xmlns="http://www.w3.org/2000/svg" xmlns:xlink="http://www.w3.org/1999/xlink" x="0px" y="0px"
	 viewBox="0 0 800 600" style="enable-background:new 0 0 800 600;" xml:space="preserve">
<style type="text/css">
	.st0{fill:#009FE3;}
</style>
<path class="st0" d="M544,268.4c-2.1-0.4-3.7-1.2-5-2.5c-1.7-1.2-2.9-2.9-3.7-5c-1.2-2.1-1.7-4.6-1.7-7.9v-44.1
	c0-5-0.8-9.6-2.5-13.3s-3.7-6.7-6.2-9.2c-2.9-2.5-5.8-4.2-9.2-5.4c-3.3-1.2-7.1-1.7-10.8-1.7h-0.8h-9.2H410v-9.2
	c12.9-4.6,22.1-17.1,22.1-31.2c0-18.3-15-33.3-33.3-33.3c-18.3,0-33.3,15-33.3,33.3c0,14.6,9.2,26.6,22.1,31.6v9.2h-93.6
	c-3.7,0-7.5,0.4-10.8,1.7c-3.3,1.2-6.7,2.9-9.2,5.4c-2.9,2.5-5,5.4-6.2,9.2c-1.7,3.7-2.5,7.9-2.5,13.3v44.5c0,3.3-0.4,5.8-1.7,7.9
	c-1.2,2.1-2.5,3.7-3.7,5c-1.7,1.2-3.3,2.1-5,2.5c-2.9,0.8-5,3.3-5,6.2v8.7c0,2.9,2.1,5.4,5,6.2c2.1,0.4,3.7,1.2,5,2.5
	c1.7,1.2,2.9,2.9,3.7,5.4c1.2,2.1,1.7,5,1.7,8.7v45.8c0,5,0.8,9.6,2.5,13.3c1.7,3.7,3.7,6.7,6.2,9.2c2.9,2.5,5.8,4.2,9.2,5.4
	c3.3,1.2,7.1,1.7,10.8,1.7h26.2h154c4.2,0,7.9,0.8,9.2,3.7c1.2,2.9,0.8,6.2,0.8,9.6v23.7v4.6v37.9c0,3.3,0,5.8-1.2,8.7
	c-1.2,2.9-4.2,4.6-8.7,4.6H334.3h-6.2c-4.2,0-7.9-1.7-8.7-4.6c-1.2-2.9-0.8-5.8-0.8-9.2v-19.6c0,0,0.4-12.5-11.7-12.5
	c-11.7,0-11.2,11.7-11.2,12.5v22.1c0,5,0.8,9.6,2.5,13.3c1.7,3.7,3.7,6.7,6.2,9.2c2.9,2.5,5.8,4.2,9.2,5.4c3.3,1.2,7.1,1.7,10.8,1.7
	h0.8h9.2h144.4c3.7,0,7.5-0.4,10.8-1.7c3.3-1.2,6.7-2.9,9.2-5.4c2.9-2.5,5-5.4,6.2-9.2c1.7-3.7,2.5-7.9,2.5-13.3v-41.2v-3.3v-27
	c0-5-0.8-9.6-2.5-13.3c-1.7-3.7-3.7-6.7-6.2-9.2c-2.9-2.5-5.8-4.2-9.2-5.4c-3.3-1.2-7.1-1.7-10.8-1.7h-26.2h-154
	c-4.2,0-8.3-2.9-9.6-5.4c-1.2-2.9-0.4-24.5-0.4-27.9v-24.1c0-5.4-0.8-9.6-2.5-12.9c-1.7-3.3-3.7-5.8-5.8-7.9
	c-2.1-2.1-4.6-3.3-7.1-4.2c-2.5-0.8-4.6-1.2-6.7-1.7v-0.4c1.7,0,4.2-0.8,6.7-1.7c2.5-1.2,5-2.5,7.1-4.6c2.1-2.1,4.2-4.6,5.8-7.5
	c1.7-2.9,2.5-6.7,2.5-11.2v-42c0-3.3,0-6.7,0.8-9.6c1.2-2.9,4.2-4.2,9.2-3.7h196.4h6.2c4.2,0,7.5,1.2,8.7,4.2
	c1.2,2.9,1.2,6.2,1.2,9.6v42.4c0,4.2,0.8,7.9,2.5,11.2c1.7,2.9,3.7,5.4,5.8,7.5c2.1,2.1,4.6,3.3,7.1,4.6c2.5,1.2,4.6,1.7,6.7,1.7
	v0.4c-1.7,0-4.2,0.8-6.7,1.7c-2.5,0.8-5,2.1-7.1,4.2c-2.1,2.1-4.2,4.6-5.8,7.9c-1.7,3.3-2.5,7.5-2.5,12.9v29.5c0,0,0,10.8,11.7,10.8
	c12.1,0,11.7-10.8,11.7-10.8v-28.7c0-3.7,0.4-6.7,1.7-8.7c1.2-2.1,2.5-4.2,3.7-5.4c1.7-1.2,3.3-2.1,5-2.5c2.9-0.8,5-3.3,5-6.2v-8.7
	C549,271.7,546.9,269.2,544,268.4z M398.8,127.3c5.8,0,10.8,5,10.8,10.8c0,5.8-5,10.8-10.8,10.8c-5.8,0-10.8-5-10.8-10.8
	C388,132.3,393,127.3,398.8,127.3z"/>
<path class="st0" d="M426.2,261.3c0,10.8,8.7,20,20,20c10.8,0,20-8.7,20-20c0-10.8-8.7-20-20-20S426.2,250.1,426.2,261.3z"/>
<path class="st0" d="M332.2,261.3c0,10.8,8.7,20,20,20c10.8,0,20-8.7,20-20c0-10.8-8.7-20-20-20
	C341.4,241.7,332.2,250.5,332.2,261.3z"/>
</svg>
